<svg id="Group_24" data-name="Group 24" xmlns="http://www.w3.org/2000/svg" xmlns:xlink="http://www.w3.org/1999/xlink" width="155" height="32" viewBox="0 0 268.007 55.2"><defs><clipPath id="clip-path"><rect id="Rectangle_4" data-name="Rectangle 4" width="61.315" height="55.2" fill="#eac895"></rect></clipPath></defs> <path id="Path_19" data-name="Path 19" d="M27.542-70.4H30.46L18.08-98H15.32L2.94-70.4H5.858L8.7-76.789H24.7ZM16.7-95l6.9,15.692H9.8ZM50.843-70.4v-10.96c0-5.835-3.627-8.831-8.674-8.831a7.832,7.832,0,0,0-6.781,3.588l-.079-3.272H32.786V-70.4h2.642V-81.007a6.387,6.387,0,0,1,6.387-6.7c3.9,0,6.348,2.208,6.348,6.387V-70.4Zm13.09-19.831c-5.835,0-10.014,4.1-10.014,10.133A9.626,9.626,0,0,0,63.932-70.086,9.583,9.583,0,0,0,73.947-80.1,9.723,9.723,0,0,0,63.932-90.233Zm0,2.405c4.337,0,7.373,3.233,7.373,7.728,0,4.534-3,7.53-7.373,7.53-4.3,0-7.373-3-7.373-7.53C56.56-84.6,59.6-87.828,63.932-87.828ZM95.316-70.4v-10.96c0-5.835-3.627-8.831-8.674-8.831a7.832,7.832,0,0,0-6.781,3.588l-.079-3.272H77.259V-70.4H79.9V-81.007a6.387,6.387,0,0,1,6.387-6.7c3.9,0,6.348,2.208,6.348,6.387V-70.4Zm17.663-19.477-4.534,10.763-2.208,5.6-2.168-5.6-4.14-10.763H96.972l7.806,19.24-4.1,9.541h2.878L115.9-89.878ZM127.882-98H117.04v27.6h10.842c9.659,0,13.917-7.057,13.8-14.036C141.563-91.258,137.344-98,127.882-98ZM122.2-93.072h5.677c5.993,0,8.516,4.3,8.634,8.595.118,4.495-2.366,9.068-8.634,9.068H122.2Zm30.516,2.839c-6.19,0-10.054,4.573-10.054,10.133,0,5.6,3.785,10.133,10.093,10.133S162.892-74.5,162.892-80.1A9.826,9.826,0,0,0,152.72-90.233Zm.039,4.376a5.489,5.489,0,0,1,5.283,5.756c0,2.957-1.774,5.717-5.283,5.717s-5.283-2.76-5.283-5.717C147.477-83.018,149.29-85.857,152.76-85.857Zm20.029,2.6-3.824-6.584h-5.756v.158l6.387,9.423-6.781,9.738v.118h5.756l4.219-6.505,4.219,6.505h5.756v-.118l-6.781-9.738,6.387-9.423v-.158h-5.756Zm19.4,0-3.824-6.584h-5.756v.158l6.387,9.423-6.781,9.738v.118h5.756l4.219-6.505L196.4-70.4h5.756v-.118l-6.781-9.738,6.387-9.423v-.158H196.01Z" transform="translate(65.846 108.281)" fill="#b19161"></path> <g id="Group_9" data-name="Group 9"><g id="Group_8" data-name="Group 8" transform="translate(0 0)" clip-path="url(#clip-path)"><path id="Path_4" data-name="Path 4" d="M953.708,5.31a2.655,2.655,0,1,0-2.655-2.655,2.655,2.655,0,0,0,2.655,2.655" transform="translate(-922.424)" fill="#fff1dd"></path> <path id="Path_5" data-name="Path 5" d="M1253.953,473.824a3.114,3.114,0,1,0-3.114-3.114,3.114,3.114,0,0,0,3.114,3.114" transform="translate(-1213.187 -453.52)" fill="#fff1dd"></path> <path id="Path_6" data-name="Path 6" d="M600.567,78.809h2.416a4.314,4.314,0,0,1-.045-.6,4.078,4.078,0,0,1,.132-1.021h-3.426L596.7,82.311l-6.222-10.756H604.76l4.992-8.669h-9.017a3.4,3.4,0,0,1,.087.766,3.472,3.472,0,0,1-.1.829h6.262l-3.143,5.448H589.556L586.42,64.48h7.6a3.466,3.466,0,0,1-.1-.829,3.4,3.4,0,0,1,.087-.766H583.654L596.7,85.5Z" transform="translate(-566.085 -60.992)" fill="#eac895"></path> <path id="Path_7" data-name="Path 7" d="M1178.148,101.273l4.862-8.417,5.948,10.306h-9.667a4.064,4.064,0,0,1,.132,1.021,4.287,4.287,0,0,1-.044.6h10.5l3.412,5.87h-20.564l1.6-2.769a3.878,3.878,0,0,1-1.391-.772l-2.975,5.167h26.1L1183.01,89.67l-6.236,10.795a3.9,3.9,0,0,1,1.374.808" transform="translate(-1134.744 -86.971)" fill="#eac895"></path> <path id="Path_8" data-name="Path 8" d="M640.278,1116.234a2.276,2.276,0,1,0,2.276,2.276,2.276,2.276,0,0,0-2.276-2.276" transform="translate(-618.797 -1082.634)" fill="#fff1dd"></path> <path id="Path_9" data-name="Path 9" d="M1555.931,935.471a2.934,2.934,0,1,0,2.934-2.934,2.934,2.934,0,0,0-2.934,2.934" transform="translate(-1509.094 -904.466)" fill="#fff1dd"></path> <path id="Path_10" data-name="Path 10" d="M1420.695,995.94a3.168,3.168,0,0,1-.036.48h5.081l-10.282,17.825-3.985-6.894,4.59-7.79a3.718,3.718,0,0,1-1.434-.71l-5,8.5,5.834,10.12,13.048-22.585h-7.973a3.453,3.453,0,0,1,.162,1.056" transform="translate(-1367.192 -964.937)" fill="#eac895"></path> <path id="Path_11" data-name="Path 11" d="M171.175,321.864a3.414,3.414,0,1,0-3.414-3.414,3.414,3.414,0,0,0,3.414,3.414" transform="translate(-162.711 -305.553)" fill="#fff1dd"></path> <path id="Path_12" data-name="Path 12" d="M18.5,118.453H23.33l-.841,1.473a3.133,3.133,0,0,1,1.323.925l2.284-3.934H19.421l-2.654-4.636H26.1L13.048,89.669,9.509,95.792a4.191,4.191,0,0,1,1.447.685l2.092-3.626L23.33,110.657H15.852L11.4,102.884a4.223,4.223,0,0,1-1.337.878l3.95,6.894H2.766l4-6.935a4.191,4.191,0,0,1-1.317-.9L0,112.282H14.926Z" transform="translate(0 -86.97)" fill="#eac895"></path> <path id="Path_13" data-name="Path 13" d="M19.566,1003.137l-1.545,2.692-6.5-10.944H.1l13.045,22.586,7.864-13.629a3.077,3.077,0,0,1-1.442-.7m-6.423,11.108L2.864,996.42h7.748l6.492,10.956Z" transform="translate(-0.095 -964.937)" fill="#eac895"></path> <path id="Path_14" data-name="Path 14" d="M909.393,1652.134a2.734,2.734,0,1,0,2.734,2.734,2.734,2.734,0,0,0-2.734-2.734" transform="translate(-879.367 -1602.402)" fill="#fff1dd"></path> <path id="Path_15" data-name="Path 15" d="M609.019,1000.589l-2.4-4.169h8.089a3.138,3.138,0,0,1-.036-.48,3.453,3.453,0,0,1,.162-1.056H603.855l3.32,5.736-2.489,4.31-5.35-9.27-4.1,7.1-8.953,15.486h8.95a3.385,3.385,0,0,1-.024-1.565h-6.157l7.569-13.108,2.714-4.713,4.428,7.667-4.291,7.442a3.524,3.524,0,0,1,1.434.711l3.78-6.547,4.929,8.548h-7.5a3.385,3.385,0,0,1-.024,1.565h10.291l-6.774-11.736Z" transform="translate(-568.637 -964.937)" fill="#eac895"></path></g></g></svg>