<svg xmlns="http://www.w3.org/2000/svg" viewBox="0 0 1288.81 354.19"><defs><style>.cls-1{fill:#fff;}.cls-2{fill:#808285;}.cls-3{fill:#d1d3d4;}.cls-4{fill:#58595b;}</style></defs><g id="Layer_2" data-name="Layer 2"><g id="Layer_1-2" data-name="Layer 1"><path class="cls-1" d="M502.66,154.51c-3.72-14.12-12.83-24.64-30.79-24.64-26.57,0-37.6,23.36-37.6,47.1s11,47.22,37.6,47.22c19.25,0,29.77-14.5,31.44-32.47h21.17c-1.8,29.52-22.71,50.05-52.61,50.05-37.09,0-59.29-29.51-59.29-64.8s22.07-64.81,59.16-64.81c28,.13,49.92,15.53,52.61,42.35H502.66Zm34.65,39.4c0-27.34,16.43-47.1,45.18-47.1s45.17,19.76,45.17,47.1-16.43,47.35-45.17,47.35S537.31,221.5,537.31,193.91Zm70.58,0c0-15.4-7.7-31.44-25.4-31.44S557,178.38,557,193.78s7.7,31.7,25.41,31.7,25.41-16,25.41-31.7Zm36.83-78.8h19.64v18.74H644.6V115.11Zm0,34.14h19.64v89.44H644.6V149.12Zm41.2,0h18.61v13.22l.25.25a32.09,32.09,0,0,1,28-15.91c19.25,0,31.7,10.27,31.7,30.41v61.6H744.69V182.49c-.38-14.12-5.9-20-17.45-20-13.22,0-21.82,10.26-21.82,23.48v52.87H685.79V149.25ZM896,238.69H882.13l-3.21-14.5a44.51,44.51,0,0,1-37.21,17.58c-37.09,0-59.29-29.51-59.29-64.8s22.2-64.81,59.16-64.81c26.95,0,49.79,14.37,53.13,42.35H873.53c-2-16.43-16.29-24.64-31.95-24.64-26.43,0-37.6,23.36-37.6,47.1s11.17,47.09,37.73,47.09c22.07.39,34.26-13,34.65-34h-33V173.63H896v65.06Zm36.32-39.52c0,14,7.57,26.43,24,26.43,11.55,0,18.35-5,21.81-14.88h18.74c-4.36,19.63-20.92,30.54-40.55,30.54-28.11,0-43.76-19.63-43.76-47.23,0-25.4,16.68-47.22,43.24-47.22,28.24,0,45.56,25.41,42.35,52.36Zm46.07-13.09c-.77-12.45-9.24-23.74-22.59-23.74-13.73,0-23.1,10.39-23.48,23.74Zm95.22-6.93c-1.54-10.91-9.5-16.68-20.53-16.68-10.27,0-24.39,5.26-24.39,32.46,0,14.89,6.42,30.8,23.62,30.8,11.55,0,19.37-7.7,21.3-20.53h19.76c-3.59,23.1-18,35.93-41.06,35.93-28.11,0-43.51-19.89-43.51-46.2,0-27,14.76-48.12,44.15-48.12,20.79,0,38.5,10.39,40.42,32.34Z"/><polygon class="cls-1" points="1110.04 115.11 1129.81 115.11 1129.81 185.44 1165.48 149.25 1189.74 149.25 1155.47 182.1 1193.07 238.82 1168.95 238.82 1141.48 195.32 1129.81 206.74 1129.81 238.82 1110.04 238.82 1110.04 115.11"/><path class="cls-1" d="M1198.33,193.91c0-27.34,16.43-47.1,45.18-47.1s45.3,19.76,45.3,47.1-16.43,47.35-45.3,47.35S1198.33,221.5,1198.33,193.91Zm70.59,0c0-15.4-7.7-31.44-25.41-31.44s-25.41,16-25.41,31.44,7.7,31.69,25.41,31.69,25.53-16,25.53-31.69Z"/><path class="cls-2" d="M354.19,176.33A177.1,177.1,0,1,1,176.33,0,177.1,177.1,0,0,1,354.19,176.33Z"/><path class="cls-3" d="M341,176.33a163.81,163.81,0,1,1-327.62,1.54h0A163.81,163.81,0,1,1,341,176.33Z"/><path class="cls-1" d="M180.05,24a95.8,95.8,0,0,1,61.59,10.14c9.37,5.13,17.46,11.93,25.41,18.48s16,13.21,23.74,20.53A138.58,138.58,0,0,1,325.06,126a131,131,0,0,1,5.77,62.37h-1a287.65,287.65,0,0,0-27.47-85.73A258.94,258.94,0,0,0,286.3,77,92.75,92.75,0,0,0,265,55.44a124.67,124.67,0,0,0-27.08-13.35c-9.36-3.72-18.48-7.44-28.23-10.26-9.5-2.7-19.25-4.75-29.51-6.8V24Z"/><path class="cls-2" d="M260.12,118.58c-11.8-3.47-24.12-8.34-36.57-13.22-.77-3.21-3.59-7.06-9.11-11.81-8.21-7-23.49-6.93-36.7-3.85a91.63,91.63,0,0,0-42.86-1.28c-113.32,31.31-49,107.41-90.6,183.9,5.77,12.57,69.68,85.72,162,66.08,0,0-31.57-75.71,39.65-112.15,57.75-29.65,99.45-84.45,14.24-107.8Z"/><path class="cls-1" d="M274.11,168.37a6.93,6.93,0,1,1-13.73,1.88,6.58,6.58,0,0,1,0-1.88,6.93,6.93,0,0,1,13.73,0Z"/><path class="cls-4" d="M177.74,89.83c8.21.52,38.11,10.27,45.81,15.4C217.13,86.62,195.45,84.19,177.74,89.83Z"/><path class="cls-1" d="M185.56,136.8a31.7,31.7,0,1,1-31.69-31.7A31.69,31.69,0,0,1,185.56,136.8Z"/><path class="cls-4" d="M176.2,137.06a22.33,22.33,0,0,1-44.53,3.38,21.19,21.19,0,0,1,0-3.38,22.33,22.33,0,0,1,44.53,0Z"/><path class="cls-2" d="M299.78,182.23a157.45,157.45,0,0,1-96.25,32c-19.25,0-23.23-20.53-36.06-10.52a91.1,91.1,0,0,1-48.38,15.78,60.32,60.32,0,0,1-56.85-51.2c-3.34,39.53-5.13,68.66-19.89,101.89,29.52,47.23,100,83.8,163.88,68-6.93-47.87,35-95,58.51-118.83,9-9.12,26.05-24,35-37.22Z"/><path class="cls-4" d="M298.75,183.51A114.53,114.53,0,0,1,271.8,201a173.32,173.32,0,0,1-30.54,11,95.28,95.28,0,0,1-32.47,3.72,44.38,44.38,0,0,1-29.64-13.09l.38-.38a56.49,56.49,0,0,0,29.52,8.21,139.44,139.44,0,0,0,61.6-11.93,113.06,113.06,0,0,0,27.84-15.4l.39.38Z"/></g></g></svg>