<svg xmlns="http://www.w3.org/2000/svg" viewBox="0 0 1766.69 302.68"><defs><style>.cls-1{fill:#fff;}</style></defs><g id="Layer_2" data-name="Layer 2"><g id="Layer_1-2" data-name="Layer 1"><g id="Artboard-Copy"><g id="black"><path id="Full-logo-_-black" data-name="Full-logo-/-black" class="cls-1" d="M260.26,180.87c-5.3,3.34-11.54,3.75-16.28,1.09-6-3.39-9.34-11.33-9.34-22.36v-33c0-15.94-6.33-27.29-16.91-30.35-17.93-5.21-31.41,16.65-36.48,24.86l-31.63,51.09V109.73c-.35-14.37-5-23-13.93-25.55-5.88-1.72-14.68-1-23.23,12L41.61,209.54a124.19,124.19,0,0,1-14.41-58.2c0-68.28,54.92-123.83,122.42-123.83S272,83.06,272,151.34a3.31,3.31,0,0,0,0,.33c0,.12,0,.23,0,.34.64,13.23-3.66,23.75-11.8,28.87Zm39-29.52h0v-.68C298.86,67.51,231.89,0,149.62,0,67.12,0,0,67.89,0,151.34S67.12,302.68,149.62,302.68a148.16,148.16,0,0,0,101.72-40.36,13.84,13.84,0,0,0,.73-19.43,13.48,13.48,0,0,0-19.22-.74A121.33,121.33,0,0,1,58.53,234l63.89-102.22v47.13c0,22.63,8.81,29.95,16.2,32.09s18.7.68,30.56-18.52l35.14-56.76c1.13-1.83,2.17-3.41,3.11-4.78V159.6c0,21.15,8.51,38.07,23.34,46.41,13.36,7.52,30.17,6.84,43.86-1.77C291.23,193.79,300.17,174.55,299.24,151.35ZM507.55,99.64c3.59,2.18,6.7,7,6.7,11.39a13,13,0,0,1-12.69,12.83,15.11,15.11,0,0,1-4.78-1,48.79,48.79,0,0,0-28.5-9.69c-24.9,0-42.14,20.34-42.14,45.52S443.38,204,468.28,204a46.76,46.76,0,0,0,31.84-12.83,13,13,0,0,1,7.43-2.42,11.92,11.92,0,0,1,12,12.1,12.77,12.77,0,0,1-6,10.41c-12,10.18-28.26,16.95-45,16.95-38.31,0-69.44-31.48-69.44-70.22s31.13-70.22,69.44-70.22A69.48,69.48,0,0,1,507.55,99.64Zm70.05,29.3c26.1,0,48.13,22,48.13,49.16s-22,50.12-48.13,50.12c-27.3,0-50-23-50-50.12S550.3,128.94,577.6,128.94ZM577.36,204c11.5,0,21.31-10.9,21.31-25.67s-9.81-24-21.31-24c-12.45,0-22.75,9-22.75,24C554.61,193.11,564.91,204,577.36,204Zm64.78,9.2V144a13.68,13.68,0,0,1,13.41-13.81A13.88,13.88,0,0,1,669.2,144v69.25A13.88,13.88,0,0,1,655.55,227,13.67,13.67,0,0,1,642.14,213.21ZM640,104c0-9,6.94-16.23,15.56-16.23a16.14,16.14,0,0,1,16,16.23,15.88,15.88,0,0,1-16,15.73A15.61,15.61,0,0,1,640,104Zm81.06,71.66v37.54A13.87,13.87,0,0,1,707.4,227,13.68,13.68,0,0,1,694,213.21v-72.4a10.71,10.71,0,0,1,10.55-10.66,10.5,10.5,0,0,1,10.3,10.66c11-10.17,20.58-11.87,29.68-11.87,27.06,0,39,20.34,39,43.35v40.92A13.88,13.88,0,0,1,769.9,227a13.67,13.67,0,0,1-13.41-13.8V175.67c0-11.86-1.44-21.79-18.44-21.79-12,0-17,9.93-17,21.79ZM871.55,190a8.83,8.83,0,0,1-6.94-3.4L833,152.43v60.78A13.88,13.88,0,0,1,819.35,227a13.67,13.67,0,0,1-13.41-13.8V92.87a5.29,5.29,0,0,1,5-3.39c2.38,0,4.29,1.94,5.74,3.39L867,149.29a4.83,4.83,0,0,0,8.62,0l50.29-56.43c1.44-1.45,3.35-3.39,5.74-3.39a5.3,5.3,0,0,1,5,3.39V213.21A13.67,13.67,0,0,1,923.27,227a13.88,13.88,0,0,1-13.65-13.8V152.43L878,186.57A8.65,8.65,0,0,1,871.55,190Zm130.15,14c12.21,0,22.5-10.9,22.5-25.67s-10.52-24.46-22.5-24.46-21.55,9.93-21.55,24.46C980.15,192.63,989.73,204,1001.7,204Zm28.74,12.35-.49-3.15c-5.26,10.41-22,15-32.81,15-25.38,0-44-23-44-50.12s19.15-49.16,45.49-49.16A42,42,0,0,1,1030,144l.48-3.15a10.49,10.49,0,0,1,10.3-10.66,10.7,10.7,0,0,1,10.53,10.66v75.55A10.69,10.69,0,0,1,1040.72,227a10.49,10.49,0,0,1-10.3-10.65Zm95.9-62.48h-2.87c-17,1-20.35,10.66-20.35,21.79v37.54a13.88,13.88,0,0,1-13.65,13.8,13.67,13.67,0,0,1-13.41-13.8v-72.4a10.69,10.69,0,0,1,10.53-10.66,10.49,10.49,0,0,1,10.3,10.66c10.06-9.45,18.2-11.38,26.58-11.87h2.63a12.47,12.47,0,0,1,.24,24.94Zm104.29,53a12.21,12.21,0,0,1,1.92,6.53c0,7-6.47,13.56-13.41,13.56-4.79,0-8.86-3.63-12-7.51L1176,183.43v29.78a13.88,13.88,0,0,1-13.65,13.8,13.67,13.67,0,0,1-13.41-13.8V103.28a13.67,13.67,0,0,1,13.41-13.8,13.88,13.88,0,0,1,13.65,13.8v68.53l31.12-34.39c3.12-3.63,6.95-7.27,11.74-7.27,6.71,0,12.93,6.3,12.93,13.32a11.83,11.83,0,0,1-1.68,6.3l-24.66,26.87,25.14,30.27Zm33.66-36.74h39c0-11.56-9.16-17.29-19.51-17.29S1264.29,158.87,1264.29,170.18Zm54.83,16.64h-54.83c0,16.22,15.56,18.64,22.5,18.64,5,0,12.22-1,17.72-3.39a13.15,13.15,0,0,1,7-2.18,11.21,11.21,0,0,1,11,11.15,11.56,11.56,0,0,1-6,9.68c-8.38,6.05-19.16,7.5-29.46,7.5-27.29,0-50-14.76-50-48.91,0-26.88,13.88-50.37,46.21-50.37,26.1,0,46,16.95,46.45,47.22A10.69,10.69,0,0,1,1319.12,186.82Zm75.32,41.4H1387c-20.6,0-32.56-9-32.56-41.16V153.88h-7a12.47,12.47,0,0,1,0-24.94h7V103.27a13.67,13.67,0,0,1,13.41-13.8,13.88,13.88,0,0,1,13.65,13.8v25.67h11.25a12.47,12.47,0,0,1,0,24.94h-11.25v27.85c0,18.4,1,22.28,9.1,22.28h3.83a12.07,12.07,0,0,1,12,12.11A12.22,12.22,0,0,1,1394.44,228.22Zm131.1-128.58c3.59,2.18,6.71,7,6.71,11.39a13,13,0,0,1-12.69,12.83,15.12,15.12,0,0,1-4.79-1,48.77,48.77,0,0,0-28.5-9.69c-24.89,0-42.14,20.34-42.14,45.52S1461.37,204,1486.27,204a46.79,46.79,0,0,0,31.85-12.83,12.92,12.92,0,0,1,7.42-2.42,11.91,11.91,0,0,1,12,12.1,12.77,12.77,0,0,1-6,10.41c-12,10.18-28.26,16.95-45,16.95-38.31,0-69.44-31.48-69.44-70.22s31.12-70.22,69.44-70.22A69.44,69.44,0,0,1,1525.54,99.64ZM1594.16,204c12.21,0,22.5-10.9,22.5-25.67s-10.54-24.46-22.51-24.46-21.55,9.93-21.55,24.46c0,14.29,9.58,25.67,21.55,25.67Zm28.73,12.35-.48-3.15c-5.27,10.41-22,15-32.81,15-25.38,0-44.06-23-44.06-50.12s19.16-49.16,45.5-49.16a42,42,0,0,1,31.37,15l.48-3.15a10.49,10.49,0,0,1,10.3-10.66,10.7,10.7,0,0,1,10.53,10.66v75.55A10.69,10.69,0,0,1,1633.19,227,10.49,10.49,0,0,1,1622.89,216.36ZM1718.08,204c12,0,21.55-11.38,21.55-25.67,0-14.53-9.58-24.46-21.55-24.46s-22.51,9.69-22.51,24.46S1705.87,204,1718.08,204Zm-22.51,16.23v34.38a13.88,13.88,0,0,1-13.65,13.8,13.68,13.68,0,0,1-13.41-13.8V140.81a10.7,10.7,0,0,1,10.54-10.66c5.74,0,10.3,4.85,10.3,11.62,10.05-10.41,22.5-12.83,31.84-12.83,26.34,0,45.5,22,45.5,49.16s-18.68,50.12-44.06,50.12C1714.73,228.22,1703,225.8,1695.57,220.24Z"/></g></g></g></g></svg>