<svg xmlns="http://www.w3.org/2000/svg" viewBox="0 0 2000.01 311.01"><defs><style>.cls-1,.cls-2{fill:#fff;}.cls-2{opacity:0.35;isolation:isolate;}</style></defs><g id="Layer_2" data-name="Layer 2"><g id="Layer_1-2" data-name="Layer 1"><path class="cls-1" d="M464.91,227.88a86.49,86.49,0,0,1-33.85-32.45q-12.27-20.73-12.26-46.75t12.38-46.76a87.57,87.57,0,0,1,34-32.45q21.61-11.78,48.39-11.76a101,101,0,0,1,39.67,7.58,81.08,81.08,0,0,1,30.32,22l-21.22,20q-19.23-20.78-47.27-20.78-18.21,0-32.6,8A57.61,57.61,0,0,0,460,116.58q-8.08,14.16-8.08,32.1T460,180.77a57.39,57.39,0,0,0,22.49,22.11q14.4,8,32.6,8,28,0,47.25-21l21.22,20.2a80.61,80.61,0,0,1-30.45,22,101.62,101.62,0,0,1-39.79,7.58Q486.51,239.65,464.91,227.88Z"/><path class="cls-1" d="M632.06,230a64.38,64.38,0,0,1-25.65-24.6q-9.23-15.78-9.23-35.75T606.41,134a64.68,64.68,0,0,1,25.65-24.51q16.43-8.82,36.89-8.84,20.71,0,37.14,8.84A64.88,64.88,0,0,1,731.74,134Q741,149.66,741,169.63t-9.22,35.75A64.49,64.49,0,0,1,706.09,230q-16.43,8.85-37.14,8.85-20.48,0-36.89-8.85m65.69-29.83q11.38-11.59,11.37-30.56T697.75,139q-11.37-11.61-28.8-11.62T640.27,139Q629,150.7,629,169.65t11.25,30.56q11.24,11.65,28.68,11.63t28.81-11.63"/><path class="cls-1" d="M774,74.52A17.72,17.72,0,0,1,768.24,61,17.77,17.77,0,0,1,774,47.47a20.33,20.33,0,0,1,14.4-5.42,20.86,20.86,0,0,1,14.4,5.18,16.75,16.75,0,0,1,5.82,13,19,19,0,0,1-5.69,14A19.61,19.61,0,0,1,788.45,80,20.18,20.18,0,0,1,774,74.52Zm-1.52,27.67h31.59V237.11H772.53Z"/><path class="cls-1" d="M964.32,115.58q15.4,14.91,15.41,44.22v77.31H948.15V163.84q0-17.67-8.34-26.66t-23.76-9q-17.43,0-27.54,10.48t-10.1,30.2v68.22H846.82V102.19h30.07v17.43a49.61,49.61,0,0,1,19.71-14.16,71.23,71.23,0,0,1,26.78-4.79Q948.91,100.67,964.32,115.58Z"/><path class="cls-1" d="M1099.24,100.67v30.06a42,42,0,0,0-7.33-.76q-18.45,0-28.8,10.74t-10.37,31v65.44h-31.58v-135h30.07v19.7Q1064.88,100.68,1099.24,100.67Z"/><path class="cls-1" d="M1223.68,114.94q15.79,14.28,15.8,43.08v79.09h-29.82V220.69a36.7,36.7,0,0,1-16.55,13.51q-10.74,4.68-25.9,4.69c-10.11,0-19-1.75-26.53-5.18a41,41,0,0,1-17.56-14.41,36.55,36.55,0,0,1-6.19-20.85q0-18.18,13.51-29.18t42.59-11h34.86v-2q0-14.16-8.46-21.73T1174.28,127a73.16,73.16,0,0,0-22.36,3.54,55.31,55.31,0,0,0-18.57,9.86l-12.38-23A76.88,76.88,0,0,1,1146.49,105a114.37,114.37,0,0,1,31.59-4.3Q1207.89,100.67,1223.68,114.94Zm-28.8,95.52a29.54,29.54,0,0,0,13-15.54V179.26h-32.59q-27.3,0-27.29,17.93a16.1,16.1,0,0,0,6.82,13.65q6.83,5.07,19,5a40.7,40.7,0,0,0,21.06-5.38Z"/><path class="cls-1" d="M1398.65,115.58q15.42,14.91,15.42,44.22v77.31h-31.59V163.84q0-17.67-8.34-26.66t-23.75-9q-17.43,0-27.54,10.48t-10.11,30.2v68.22h-31.58V102.19h30.07v17.43a49.61,49.61,0,0,1,19.71-14.16,71.23,71.23,0,0,1,26.78-4.79Q1383.25,100.67,1398.65,115.58Z"/><path class="cls-1" d="M1510.59,179.26l-23.5,22.22v35.63h-31.58V49.63h31.58V162.82l65.45-60.63h37.9l-56.35,56.59,61.65,78.33h-38.41Z"/><path class="cls-1" d="M1617.72,74.52A17.74,17.74,0,0,1,1611.91,61a17.8,17.8,0,0,1,5.81-13.53,20.37,20.37,0,0,1,14.4-5.42,20.86,20.86,0,0,1,14.4,5.18,16.71,16.71,0,0,1,5.82,13,19,19,0,0,1-5.68,14A19.62,19.62,0,0,1,1632.12,80,20.28,20.28,0,0,1,1617.72,74.52Zm-1.51,27.67h31.58V237.11h-31.58Z"/><path class="cls-1" d="M1808,115.58q15.4,14.91,15.41,44.22v77.31h-31.61V163.84q0-17.67-8.34-26.66t-23.75-9q-17.45,0-27.54,10.48t-10.11,30.2v68.22h-31.58V102.19h30.07v17.43a49.48,49.48,0,0,1,19.7-14.16,71.23,71.23,0,0,1,26.78-4.79Q1792.57,100.67,1808,115.58Z"/><path class="cls-1" d="M2000,102.19V216.65q0,71.25-72.77,71.24a134.44,134.44,0,0,1-36.89-4.92q-17.44-4.94-28.81-14.28l14.15-23.75q8.85,7.35,22.36,11.75a87.72,87.72,0,0,0,27.41,4.42q22.23,0,32.6-10.1t10.37-30.83v-7.07a52,52,0,0,1-19.73,13.39,69.46,69.46,0,0,1-25.51,4.54,73,73,0,0,1-34.74-8.21,61.46,61.46,0,0,1-24.51-23.11q-9-14.91-9-34.12t9-34a61.2,61.2,0,0,1,24.51-22.87,74.42,74.42,0,0,1,34.74-8.08,71.65,71.65,0,0,1,26.66,4.79,49.46,49.46,0,0,1,20.09,14.66V102.19Zm-42.59,91.33q11.5-10.74,11.5-27.92,0-16.92-11.5-27.53T1928,127.45q-18.18,0-29.68,10.62t-11.5,27.53q0,17.22,11.5,27.92T1928,204.26Q1945.94,204.26,1957.42,193.52Z"/><path class="cls-2" d="M238.88,311a72,72,0,0,1-51-21.12L21.13,123.08A72.1,72.1,0,0,1,72.12,0H238.86A72.11,72.11,0,0,1,311,72.05v166.8A72,72,0,0,1,239.16,311Z"/><path class="cls-1" d="M72.12,311a72.09,72.09,0,0,1-51-123.07L187.87,21.12a72.12,72.12,0,0,1,102,102L123.1,289.83A71.81,71.81,0,0,1,72.12,311Z"/></g></g></svg>