<svg width="360" height="32" viewBox="0 0 360 32" fill="none" xmlns="http://www.w3.org/2000/svg">
<line x1="166.275" y1="1.20206e-08" x2="166.275" y2="32" stroke="#B6B8BA" stroke-width="0.55"/>
<path fill-rule="evenodd" clip-rule="evenodd" d="M40.5311 22.9363C37.0972 22.9363 34.5596 20.2463 34.5596 16.9424C34.5596 13.6385 37.0972 10.8826 40.5525 10.8826C42.7409 10.8826 44.097 11.6925 45.1689 12.874L43.5285 14.6453C42.7186 13.7927 41.8659 13.2019 40.5311 13.2019C38.6056 13.2019 37.2059 14.8645 37.2059 16.8987C37.2059 18.9766 38.6279 20.6392 40.6621 20.6392C41.9096 20.6392 42.8282 20.0485 43.6595 19.1958L45.2562 20.7702C44.1193 22.039 42.7845 22.9363 40.5311 22.9363Z" fill="#1E3F6F"/>
<path fill-rule="evenodd" clip-rule="evenodd" d="M50.2796 22.9362H47.6333V10.9048H50.2796V13.7266C51.0013 11.998 52.3361 10.8165 54.3702 10.9048V13.7053H54.217C51.8986 13.7053 50.2796 15.2146 50.2796 18.2771V22.9362Z" fill="#1E3F6F"/>
<path fill-rule="evenodd" clip-rule="evenodd" d="M68.2257 10.8826L62.3767 26.1752H59.6933L60.9713 22.94L55.9602 10.8826H58.7821L62.2011 19.7884L65.4837 10.8826H68.2257Z" fill="#1E3F6F"/>
<path fill-rule="evenodd" clip-rule="evenodd" d="M76.0347 13.1796C74.2411 13.1796 72.6657 14.6453 72.6657 16.8987C72.6657 19.1521 74.2411 20.6169 76.0347 20.6169C77.8506 20.6169 79.3377 19.1958 79.3377 16.8987C79.3377 14.623 77.8283 13.1796 76.0347 13.1796ZM76.6468 22.914C74.7445 22.914 73.5407 21.9517 72.7308 20.8798V26.1742H70.0845V10.8826H72.7308V13.0477C73.5844 11.8449 74.7882 10.8826 76.6468 10.8826C79.3813 10.8826 82.0286 13.0477 82.0286 16.8987C82.0286 20.7488 79.4036 22.914 76.6468 22.914Z" fill="#1E3F6F"/>
<path fill-rule="evenodd" clip-rule="evenodd" d="M87.8308 13.3987V19.0629C87.8308 20.0902 88.3528 20.5054 89.252 20.5054H90.2904V22.8693H88.4801C86.5536 22.8637 85.1845 22.0073 85.1845 19.4781V13.3987H83.7151V11.1258H85.1845V7.95288H87.8308V11.1258H90.2904V13.3987H87.8308Z" fill="#1E3F6F"/>
<path fill-rule="evenodd" clip-rule="evenodd" d="M98.6629 13.2014C96.5405 13.2014 95.1843 14.8641 95.1843 16.8982C95.1843 18.9547 96.6501 20.6387 98.7065 20.6387C100.849 20.6387 102.206 18.977 102.206 16.9419C102.206 14.8854 100.741 13.2014 98.6629 13.2014ZM98.6629 22.9358C95.1407 22.9358 92.5371 20.2458 92.5371 16.9419C92.5371 13.6166 95.162 10.8821 98.7065 10.8821C102.25 10.8821 104.854 13.573 104.854 16.8982C104.854 20.2022 102.228 22.9358 98.6629 22.9358Z" fill="#1E3F6F"/>
<path fill-rule="evenodd" clip-rule="evenodd" d="M109.698 20.5083V21.8422C109.698 21.8988 109.67 21.9499 109.621 21.9759L108.466 22.6428C108.418 22.6707 108.358 22.6707 108.313 22.6428L107.155 21.9759C107.109 21.9499 107.078 21.8988 107.078 21.8422V20.5083C107.078 20.4545 107.109 20.4034 107.155 20.3746L108.313 19.7077C108.358 19.6798 108.418 19.6798 108.466 19.7077L109.621 20.3746C109.67 20.4034 109.698 20.4545 109.698 20.5083Z" fill="#1E3F6F"/>
<path fill-rule="evenodd" clip-rule="evenodd" d="M130.16 13.2014C128.037 13.2014 126.681 14.8641 126.681 16.8982C126.681 18.9547 128.147 20.6387 130.203 20.6387C132.346 20.6387 133.702 18.977 133.702 16.9419C133.702 14.8854 132.238 13.2014 130.16 13.2014ZM130.16 22.9358C126.638 22.9358 124.034 20.2458 124.034 16.9419C124.034 13.6166 126.659 10.8821 130.203 10.8821C133.747 10.8821 136.35 13.573 136.35 16.8982C136.35 20.2022 133.725 22.9358 130.16 22.9358Z" fill="#1E3F6F"/>
<path fill-rule="evenodd" clip-rule="evenodd" d="M117.757 22.9227C114.323 22.8567 111.838 20.1176 111.902 16.8146C111.965 13.5125 114.555 10.8058 118.01 10.8718C120.197 10.9136 121.538 11.7486 122.587 12.9506L120.913 14.6903C120.12 13.8218 119.279 13.2153 117.944 13.1893C116.019 13.1521 114.587 14.7878 114.548 16.822C114.508 18.8998 115.899 20.5894 117.932 20.6284C119.179 20.6526 120.109 20.0795 120.956 19.2426L122.523 20.8476C121.362 22.0942 120.011 22.9654 117.757 22.9227Z" fill="#1E3F6F"/>
<path fill-rule="evenodd" clip-rule="evenodd" d="M152.084 10.8826C154.6 10.8826 156.131 12.4793 156.131 15.3011V22.9363H153.485V16.1111C153.485 14.2738 152.631 13.2892 151.144 13.2892C149.7 13.2892 148.671 14.2952 148.671 16.1547V22.9363H146.025V16.0888C146.025 14.2952 145.149 13.2892 143.683 13.2892C142.219 13.2892 141.212 14.3834 141.212 16.177V22.9363H138.564V10.8826H141.212V12.874C141.956 11.8458 142.963 10.8826 144.734 10.8826C146.397 10.8826 147.556 11.6925 148.168 12.9167C149.11 11.6925 150.334 10.8826 152.084 10.8826Z" fill="#1E3F6F"/>
<path fill-rule="evenodd" clip-rule="evenodd" d="M18.1072 25.1297H16.2653L14.0593 23.0983V22.0654L16.3471 19.8705V16.4068L19.3408 14.459L22.7561 17.0292L18.1072 25.1297ZM10.4665 19.6587L10.8074 16.3948L9.69187 13.4837H16.3118L15.2213 16.3948L15.5371 19.6467L12.9902 19.6587H10.4665ZM11.9694 23.0983L9.76246 25.1529H7.8964L3.22521 17.0292L6.65174 14.4823L9.68072 16.4068V19.8705L11.9694 22.0654V23.0983ZM7.86203 7.48523H18.085L19.3175 12.697H6.67496L7.86203 7.48523ZM12.9902 1L0.000244141 8.49954V23.4995L12.9902 31L25.9811 23.4995V8.49954L12.9902 1Z" fill="#1E3F6F"/>
<mask id="mask0" mask-type="alpha" maskUnits="userSpaceOnUse" x="0" y="1" width="13" height="30">
<path d="M0 8.49954L12.99 1V7.48523H7.86179L6.67565 12.697H12.99V13.4837H9.69255L10.8072 16.3948L10.4672 19.6587H12.99V31L0 23.4995V8.49954ZM11.9692 23.0983V22.0654L9.68048 19.8705V16.4068L6.65149 14.4823L3.22497 17.0292L7.89615 25.1529H9.76221L11.9692 23.0983Z" fill="white"/>
</mask>
<g mask="url(#mask0)">
<path d="M0 8.49954L12.99 1V7.48523H7.86179L6.67565 12.697H12.99V13.4837H9.69255L10.8072 16.3948L10.4672 19.6587H12.99V31L0 23.4995V8.49954ZM11.9692 23.0983V22.0654L9.68048 19.8705V16.4068L6.65149 14.4823L3.22497 17.0292L7.89615 25.1529H9.76221L11.9692 23.0983Z" fill="url(#paint0_linear)"/>
</g>
<mask id="mask1" mask-type="alpha" maskUnits="userSpaceOnUse" x="12" y="1" width="14" height="30">
<path d="M18.107 25.1297L22.7568 17.0292L19.3405 14.459L16.3478 16.4068V19.8705L14.0591 22.0654V23.0983L16.2651 25.1297H18.107ZM12.99 1L25.9809 8.49954V23.4995L12.99 31V19.6587L15.5378 19.6467L15.2211 16.3948L16.3125 13.4837H12.99V12.697H19.3173L18.0847 7.48523H12.99V1Z" fill="white"/>
</mask>
<g mask="url(#mask1)">
<path d="M18.107 25.1297L22.7568 17.0292L19.3405 14.459L16.3478 16.4068V19.8705L14.0591 22.0654V23.0983L16.2651 25.1297H18.107ZM12.99 1L25.9809 8.49954V23.4995L12.99 31V19.6587L15.5378 19.6467L15.2211 16.3948L16.3125 13.4837H12.99V12.697H19.3173L18.0847 7.48523H12.99V1Z" fill="url(#paint1_linear)"/>
</g>
<path d="M177.512 23H182.426C186.386 23 189.122 20.246 189.122 16.7V16.664C189.122 13.118 186.386 10.4 182.426 10.4H177.512V23ZM182.426 12.902C184.694 12.902 186.224 14.468 186.224 16.7V16.736C186.224 18.968 184.694 20.498 182.426 20.498H180.284V12.902H182.426ZM192.592 23H202.186V20.534H195.346V17.888H201.286V15.422H195.346V12.866H202.096V10.4H192.592V23ZM205.651 23H208.423V18.122H214.435V15.602H208.423V12.92H215.245V10.4H205.651V23ZM218.589 23H221.361V10.4H218.589V23ZM231.907 23H236.821C240.781 23 243.517 20.246 243.517 16.7V16.664C243.517 13.118 240.781 10.4 236.821 10.4H231.907V23ZM236.821 12.902C239.089 12.902 240.619 14.468 240.619 16.7V16.736C240.619 18.968 239.089 20.498 236.821 20.498H234.679V12.902H236.821ZM245.01 23H247.836L248.988 20.174H254.316L255.468 23H258.366L252.966 10.31H250.41L245.01 23ZM249.978 17.726L251.652 13.64L253.326 17.726H249.978ZM265.617 23.18C268.335 23.18 270.243 21.776 270.243 19.274V19.238C270.243 17.042 268.803 16.124 266.247 15.458C264.069 14.9 263.529 14.63 263.529 13.802V13.766C263.529 13.154 264.087 12.668 265.149 12.668C266.211 12.668 267.309 13.136 268.425 13.91L269.865 11.822C268.587 10.796 267.021 10.22 265.185 10.22C262.611 10.22 260.775 11.732 260.775 14.018V14.054C260.775 16.556 262.413 17.258 264.951 17.906C267.057 18.446 267.489 18.806 267.489 19.508V19.544C267.489 20.282 266.805 20.732 265.671 20.732C264.231 20.732 263.043 20.138 261.909 19.202L260.271 21.164C261.783 22.514 263.709 23.18 265.617 23.18ZM273.649 23H276.421V17.942H281.533V23H284.305V10.4H281.533V15.386H276.421V10.4H273.649V23ZM288.325 23H294.319C297.163 23 299.035 21.848 299.035 19.544V19.508C299.035 17.816 298.135 16.97 296.677 16.412C297.577 15.908 298.333 15.116 298.333 13.694V13.658C298.333 12.794 298.045 12.092 297.469 11.516C296.749 10.796 295.615 10.4 294.175 10.4H288.325V23ZM295.579 14.162C295.579 15.098 294.805 15.494 293.581 15.494H291.025V12.83H293.761C294.931 12.83 295.579 13.298 295.579 14.126V14.162ZM296.281 19.166V19.202C296.281 20.138 295.543 20.57 294.319 20.57H291.025V17.798H294.229C295.651 17.798 296.281 18.32 296.281 19.166ZM308.435 23.216C312.323 23.216 315.149 20.282 315.149 16.7V16.664C315.149 13.082 312.359 10.184 308.471 10.184C304.583 10.184 301.757 13.118 301.757 16.7V16.736C301.757 20.318 304.547 23.216 308.435 23.216ZM308.471 20.66C306.239 20.66 304.655 18.86 304.655 16.7V16.664C304.655 14.504 306.203 12.74 308.435 12.74C310.667 12.74 312.251 14.54 312.251 16.7V16.736C312.251 18.896 310.703 20.66 308.471 20.66ZM316.719 23H319.545L320.697 20.174H326.025L327.177 23H330.075L324.675 10.31H322.119L316.719 23ZM321.687 17.726L323.361 13.64L325.035 17.726H321.687ZM333.02 23H335.792V18.968H337.97L340.67 23H343.91L340.832 18.5C342.434 17.906 343.532 16.628 343.532 14.594V14.558C343.532 13.37 343.154 12.38 342.452 11.678C341.624 10.85 340.382 10.4 338.78 10.4H333.02V23ZM335.792 16.52V12.902H338.546C339.896 12.902 340.724 13.514 340.724 14.702V14.738C340.724 15.8 339.95 16.52 338.6 16.52H335.792ZM347.028 23H351.942C355.902 23 358.638 20.246 358.638 16.7V16.664C358.638 13.118 355.902 10.4 351.942 10.4H347.028V23ZM351.942 12.902C354.21 12.902 355.74 14.468 355.74 16.7V16.736C355.74 18.968 354.21 20.498 351.942 20.498H349.8V12.902H351.942Z" fill="#B6B8BA"/>
<defs>
<linearGradient id="paint0_linear" x1="6.49498" y1="1" x2="6.49498" y2="16" gradientUnits="userSpaceOnUse">
<stop stop-color="#022045"/>
<stop offset="1" stop-color="#002A67"/>
</linearGradient>
<linearGradient id="paint1_linear" x1="19.4854" y1="30.1763" x2="19.4854" y2="16" gradientUnits="userSpaceOnUse">
<stop stop-color="#021E3F"/>
<stop offset="1" stop-color="#002A67"/>
</linearGradient>
</defs>
</svg>
