<svg xmlns="http://www.w3.org/2000/svg" viewBox="0 0 1046.31 308.34"><defs><style>.cls-1{fill:#fff;}</style></defs><g id="Layer_2" data-name="Layer 2"><g id="Layer_1-2" data-name="Layer 1"><path class="cls-1" d="M148.29,175.16l-61.35,27c-.35-2.52-.23-5.24-1.15-7.54-4.35-10.91-8.93-21.73-13.62-32.49-.47-1.07-2.23-1.58-3.39-2.35l60.39-26.67,4.84.52c2.32,4.17,4.65,7.92,6.56,11.88,3.81,7.93,7.41,16,11.05,24a27,27,0,0,1,1.08,3.62.77.77,0,0,1-.85.29l-1.34.77-1.08.28Z"/><path class="cls-1" d="M152.7,173.06a27,27,0,0,0-1.08-3.62c-3.64-8-7.24-16-11.05-24-1.91-4-4.24-7.71-6.56-11.88l-4.84-.52c8.68-4,17.33-8,26.05-11.89,11.8-5.23,23.66-10.34,35.5-15.5,1.34,1.12,3.2,2,3.92,3.41,1.86,3.71,3.18,7.69,4.78,11.54,3.78,9.05,10.17,17.25,9,27.9Z"/><path class="cls-1" d="M68.78,159.74c1.16.77,2.92,1.28,3.39,2.35,4.69,10.76,9.27,21.58,13.62,32.49.92,2.3.8,5,1.15,7.54l-35.6,15.79-4.53-1.13c-1.94-1-3.86-2.14-5.83-3.12-4.71-2.34-9.45-4.63-14.17-6.95a35.81,35.81,0,0,0-4.55-3.85C15,198.5,7.64,194.3.32,190c17.22-7.78,34.41-15.61,51.66-23.32C57.51,164.25,63.18,162.06,68.78,159.74Z"/><path class="cls-1" d="M84.75,282.52l-19.33-9,48-21.31,22.83,11.23,28.24-12.07,44.52,21.89-19.58,9.05c-1.49-.67-3-1.91-4.48-1.92q-47.51-.17-95,0C88.23,280.45,86.49,281.8,84.75,282.52Z"/><path class="cls-1" d="M208.42,148.53c1.17-10.65-5.22-18.85-9-27.9-1.6-3.85-2.92-7.83-4.78-11.54-.72-1.43-2.58-2.29-3.92-3.41L220.5,92.87,241.85,103c3,1.86,5.87,3.8,8.9,5.54,7,4,14.13,8,21.2,12Z"/><path class="cls-1" d="M233.94,259.11c-1.3,0-2.82.34-3.87-.19-16.16-8.07-32.26-16.25-48.37-24.41l16.7-33.6,33,16.55.57-2.93c5-.74,10-2.21,15-2.06,8.69.25,17.66-2.18,26.05,2.06v6.69c-4.07-.74-8.13-1.93-12.23-2.13-7.21-.35-14.45-.12-21.67-.08-2.3,0-4.61.23-7.23.37,0,6.83-.28,13,.07,19C232.3,245.33,233.24,252.21,233.94,259.11Z"/><path class="cls-1" d="M199.52,33l8.94,4.52L158.88,59.37,136.29,48c-7.43,3.63-14.9,7.28-22.69,11.07L67,35.73l2.2-1.54c2,.63,4,1.8,6,1.79,11.81-.06,23.62-.63,35.43-.59,25.05.08,50.09.6,75.14.53C190.33,35.91,194.93,34,199.52,33Z"/><path class="cls-1" d="M199.52,33c-4.59,1-9.19,2.95-13.78,3-25.05.07-50.09-.45-75.14-.53-11.81,0-23.62.53-35.43.59-2,0-4-1.16-6-1.79l32.09-16,69.36,0Z"/><path class="cls-1" d="M84.75,282.52c1.74-.72,3.48-2.07,5.23-2.08q47.51-.19,95,0c1.49,0,3,1.25,4.48,1.92l-53.25,26Z"/><path class="cls-1" d="M78.8,110.92,45.74,93.52c3.55-6.19,7.48-12.2,10.52-18.63,2.28-4.84,3.41-10.23,5.06-15.37l37.88,19c-3.47,7.64-6.67,15.41-10.51,22.86-2,3.86-5.14,7.14-7.76,10.68l-.38,0-.29-.25Z"/><path class="cls-1" d="M61.32,59.52c-1.65,5.14-2.78,10.53-5.06,15.37-3,6.43-7,12.44-10.52,18.63l-1.12-.67-1.45-.92L41.39,92,.21,69.52l40.06-21Z"/><path class="cls-1" d="M241.85,103,220.5,92.87l-2-2.52c2.22-4.52,4.08-9.27,6.75-13.51,5-7.93,10.44-15.56,15.7-23.31l27.67,13.84C261.37,78.15,254.24,89,246.86,99.65,245.8,101.18,243.55,101.9,241.85,103Z"/><path class="cls-1" d="M198.4,200.91l-16.7,33.6-43.92-21.82,45.56-20Z"/><path class="cls-1" d="M233.94,259.11c-.7-6.9-1.64-13.78-2-20.7-.35-6.08-.07-12.2-.07-19,2.62-.14,4.93-.35,7.23-.37,7.22,0,14.46-.27,21.67.08,4.1.2,8.16,1.39,12.23,2.13v18.72Z"/><path class="cls-1" d="M231.79,198.94V171.17L273,153v37c-13.23-4.09-26.47-2.16-39.13-1.39Z"/><path class="cls-1" d="M46.81,216.78l4.53,1.13c6.57,4,13.12,8,19.72,11.93,3.65,2.17,7.4,4.15,12,6.75L34.18,258.3l-8.57-4.69Z"/><path class="cls-1" d="M.21,69.52,41.39,92q-.07,6.6-.13,13.21H1.14c0,3,.11,5.07,0,7.08-.3,4.34-.73,8.66-1.1,13Q.12,97.41.21,69.52Z"/><path class="cls-1" d="M46.81,216.78l-21.2,36.83-20-10c2.34-4.7,4.43-9.55,7.08-14.07,4.53-7.71,9.42-15.2,14.15-22.79,4.72,2.32,9.46,4.61,14.17,6.95C43,214.64,44.87,215.74,46.81,216.78Z"/><path class="cls-1" d="M231.79,198.94l2.05-10.34c12.66-.77,25.9-2.7,39.13,1.39v24.54c-8.39-4.24-17.36-1.81-26.05-2.06-5-.15-10,1.32-15,2.06Q231.87,206.75,231.79,198.94Z"/><path class="cls-1" d="M0,125.29c.37-4.33.8-8.65,1.1-13,.14-2,0-4,0-7.08H41.26q.12,12.28.23,24.55H1.74C1.16,134.94.58,140.16,0,145.37Z"/><path class="cls-1" d="M80.93,112.06c2.62-3.54,5.76-6.82,7.76-10.68,3.84-7.45,7-15.22,10.51-22.86l36.05,17.73L88.42,116.73Z"/><path class="cls-1" d="M241.85,103c1.7-1.09,4-1.81,5-3.34,7.38-10.67,14.51-21.5,21.73-32.28l4.33,2.81c0,15.8,0,31.3,0,46.8a14.67,14.67,0,0,1-.93,3.52c-7.07-4-14.17-7.93-21.2-12C247.72,106.79,244.81,104.85,241.85,103Z"/><path class="cls-1" d="M240.92,53.53c-5.26,7.75-10.71,15.38-15.7,23.31-2.67,4.24-4.53,9-6.75,13.51l-31.65-17c13.36-6,25.94-11.59,38.52-17.19,2.69-1.2,5.32-2.79,8.13-3.31C235.83,52.38,238.43,53.24,240.92,53.53Z"/><path class="cls-1" d="M26.81,206.71c-4.73,7.59-9.62,15.08-14.15,22.79C10,234,7.92,238.87,5.58,243.57L.32,241.32V190C7.64,194.3,15,198.5,22.26,202.86A35.81,35.81,0,0,1,26.81,206.71Z"/><path class="cls-1" d="M0,145.37c.58-5.21,1.16-10.43,1.74-15.6H41.49c.22,2.36.43,4.73.67,7.44L0,155.85Z"/><path class="cls-1" d="M170.63,18.19l-69.36,0L136.23,0Z"/><path class="cls-1" d="M78.8,110.92l1.46.92Z"/><path class="cls-1" d="M150.51,174.12l1.34-.77Z"/><path class="cls-1" d="M148.29,175.16l1.14-.76Z"/><path class="cls-1" d="M43.17,91.93l1.45.92Z"/><path class="cls-1" d="M486.1,188.89c.31.35.63.69.94,1C486.73,189.58,486.41,189.24,486.1,188.89Z"/><path class="cls-1" d="M766.16,132.42c-21.09,2.65-36.62,14.6-42.34,32.44a48.81,48.81,0,0,0,1.48,35.41c5.83,13.87,18.39,23.73,35.08,27.47,4.79,1.11,17.28,1.22,22.25.22,19.32-3.8,32.87-15.8,38.43-34,1.32-4.35,1.48-5.67,1.48-13.38s-.16-9-1.48-13.38c-5.51-17.95-18.56-29.79-37.22-33.75A92.67,92.67,0,0,0,766.16,132.42ZM778,156.05c7,1.81,13.55,6.39,16.63,11.67a25.72,25.72,0,0,1-.33,26.16c-8.76,13.77-28.75,16-40.75,4.57-10-9.53-10.35-24.62-.83-34.91A26.26,26.26,0,0,1,778,156.05Z"/><path class="cls-1" d="M869.13,132.42c-21.09,2.65-36.62,14.6-42.35,32.44a48.91,48.91,0,0,0,1.49,35.41c5.84,13.87,18.4,23.73,35.08,27.47,4.79,1.11,17.29,1.22,22.25.22,19.33-3.8,32.87-15.8,38.44-34,1.32-4.35,1.48-5.67,1.48-13.38s-.16-9-1.48-13.38c-5.51-17.95-18.56-29.79-37.23-33.75A92.62,92.62,0,0,0,869.13,132.42ZM881,156.05c7,1.81,13.55,6.39,16.63,11.67a25.72,25.72,0,0,1-.33,26.16c-8.75,13.77-28.74,16-40.75,4.57-10-9.53-10.35-24.62-.82-34.91A26.23,26.23,0,0,1,881,156.05Z"/><path class="cls-1" d="M1007.85,132.7c-12.28,1.76-21.48,9.64-24.45,20.92-2.87,10.63-.83,21.54,4.9,26.82,3.41,3.14,7.43,5,18.55,8.59,10.8,3.47,13.22,5,14.32,8.59,1.26,4.19-1.87,9.14-6.55,10.47a25.45,25.45,0,0,1-10.57-.06,38.71,38.71,0,0,1-12.51-6.22,10.07,10.07,0,0,0-2.8-2c-.28,0-1.6,2-2.92,4.51-1.82,3.52-2.42,4.3-2.59,3.31l-.17-1.22H954.49V134.3H930.81v92.51h52.31v-2.48a7.48,7.48,0,0,1,.22-2.48c.11,0,2.25,1,4.79,2.15,7.76,3.63,12.67,4.68,22.25,4.68,9.36,0,13.76-.83,19.55-3.63,4.57-2.21,10.79-8.32,12.88-12.61,4.13-8.6,4.68-20.1,1.27-27.43a25.9,25.9,0,0,0-4.52-5.89c-4-4.07-8.37-6.22-19.55-9.8a73.52,73.52,0,0,1-9.8-3.64,6.56,6.56,0,0,1-1.48-10.07c4.89-5.23,13.54-4.74,22.62,1.26l1.77,1.16,4.79-9.2c2.59-5,4.68-9.19,4.57-9.3-.55-.55-7.27-3.2-11.07-4.41C1023.26,132.53,1014.79,131.65,1007.85,132.7Z"/><path class="cls-1" d="M342.42,167.46V228.4H364c11.82,0,24.21-.35,27.43-.7,26.58-3.29,46.25-19.38,52.54-43.1,2.1-7.84,2.59-21.69,1.05-29.88-3-15.95-11.33-28.83-24.07-37.5-5.73-3.92-10.84-6.09-19-8.33-6.44-1.75-7.42-1.75-33-2.1l-26.45-.28Zm47-36c16.72,3.57,27.84,17.56,27.84,35.06-.07,11.61-3.63,21.62-10.28,28.19s-16.44,9.87-30.09,9.94H370.4V130.44h7.21A78.12,78.12,0,0,1,389.44,131.42Z"/><path class="cls-1" d="M455.07,167.53V228.4l51.29-.07h51.21l13.23-18.54c7.35-10.15,13.43-18.47,13.64-18.47s6.44,8.32,13.72,18.54l13.29,18.54H628.1c9.1,0,16.59-.21,16.59-.42s-9.8-13.92-21.69-30.44l-21.69-30L622,138.63c11.4-15.81,21.34-29.46,22-30.23,1.33-1.33,1.33-1.12,1.33,11.06v12.38h25.19V228.4h30.08V131.84l14.7-.14,14.62-.21-7.84-12.38-7.83-12.39-51.43-.07h-51.5l-13.22,18.54c-7.35,10.15-13.44,18.48-13.65,18.55s-6.36-8.33-13.64-18.55l-13.3-18.54H455.07ZM545.61,137c11.75,16.3,21.41,30,21.41,30.44s-9.66,14.2-21.48,30.64L524,228l-.21-11.68-.14-11.69H483.06V177.32h32.88V154.23H483.06V130.44h40.58V118.9c0-6.37.14-11.55.28-11.55S533.85,120.72,545.61,137Z"/></g></g></svg>