<svg xmlns="http://www.w3.org/2000/svg" viewBox="0 0 999.95 216.35"><defs><style>.cls-1{fill:#fff;}</style></defs><g id="Layer_2" data-name="Layer 2"><g id="Layer_1-2" data-name="Layer 1"><path class="cls-1" d="M347.46,162H323V54.33h24.43V70.11c8.84-11.65,22.19-18,37.6-18,24.63,0,39.1,16.53,39.1,42.08V162H399.72V98.81c0-16.35-8.64-25-22-25-18.22,0-30.27,16.35-30.27,41Z"/><path class="cls-1" d="M440.14,108.25c0-33.63,21.62-56.17,53.77-56.17s53.77,22.59,53.77,56.17-21.62,56-53.77,56S440.14,141.67,440.14,108.25Zm82.53,0c0-20.66-11.84-34.58-28.77-34.58s-28.77,13.91-28.77,34.56c0,20.5,11.87,34.44,28.77,34.44s28.81-13.92,28.81-34.39Z"/><path class="cls-1" d="M589,162H564.58V54.33H589V70.11c7.71-11.83,19-18,32-18,14.29,0,26.88,7.52,32.71,21.24,8.84-13.9,22.94-21.24,37.6-21.24,20.68,0,35.15,14.66,35.15,39.64v70.31H702V97.59c0-15.6-6.77-23.86-19.17-23.86-16.36,0-25.57,14.84-25.57,41.15V162H632.83V97.59c0-16.18-7.15-23.86-18.61-23.86C598.43,73.73,589,88.9,589,114.88Z"/><path class="cls-1" d="M749,54.33h24.43V162H749Z"/><path class="cls-1" d="M790.36,108.06c0-33.44,22.19-56,53.58-56,24.06,0,41.5,12.78,48.88,34l-22.74,9.4C867,81.39,858,73.67,844.5,73.67c-17.67,0-29.14,13.52-29.14,34.39s11.47,34.56,29.35,34.56c13.35,0,22.37-7.7,25.38-21.79l22.56,9.4c-7.9,22.17-24.82,34-48.31,34C812.55,164.23,790.36,141.67,790.36,108.06Z"/><path class="cls-1" d="M906,133.61l22.19-10.11c1.51,11.83,13.73,20.29,27.83,20.29,10.9,0,19.36-5.06,19.36-11.83,0-18.21-64.86-10.52-64.86-47.34,0-20.29,17.86-31.93,42.3-31.93,24.06,0,41.93,11.46,46.25,26.67L975.76,89.47c-.76-8.8-10.12-16.35-23.51-16.35-9.78,0-17.3,4.13-17.3,10,0,17.47,65,9.4,65,47.9,0,19.54-17.3,33.25-44.54,33.25C928.54,164.23,910.12,152.21,906,133.61Z"/><path class="cls-1" d="M98,48.33A49,49,0,0,0,0,49.67v117a49,49,0,0,0,83.7,34.67L117,168h0a49,49,0,0,0,98-1.34v-117A49,49,0,0,0,131.3,15L98,48.33m10.28,10.81a49,49,0,1,1-49,49A49,49,0,0,1,108.28,59.14Z"/></g></g></svg>